<svg width="288" height="47" viewBox="0 0 1440 235" fill="none" xmlns="http://www.w3.org/2000/svg">
<path d="M298.346 225.326C288.068 218.771 279.703 209.595 274.103 198.732C267.961 186.914 264.864 173.737 265.094 160.406C264.867 147.068 267.964 133.885 274.103 122.059C279.714 111.204 288.077 102.03 298.346 95.4654C307.561 89.6292 318.137 86.3241 329.019 85.8798C339.902 85.4356 350.71 87.8677 360.365 92.9336C368.924 97.6884 374.984 103.061 378.527 108.989H378.834V24H412.536V232.015H378.895V211.802H378.588C375.039 217.758 368.985 223.109 360.426 227.857C350.768 232.949 339.946 235.395 329.049 234.951C318.151 234.507 307.563 231.187 298.346 225.326ZM359.096 197.847C365.203 194.081 370.201 188.745 373.572 182.389C377.069 175.591 378.894 168.049 378.894 160.395C378.894 152.742 377.069 145.2 373.572 138.402C370.194 132.057 365.198 126.729 359.096 122.965C353.035 119.263 346.08 117.305 338.989 117.305C331.898 117.305 324.942 119.263 318.882 122.965C312.762 126.751 307.724 132.071 304.263 138.402C300.661 145.167 298.776 152.722 298.776 160.395C298.776 168.069 300.661 175.624 304.263 182.389C307.718 188.731 312.756 194.058 318.882 197.847C324.949 201.529 331.902 203.475 338.989 203.475C346.076 203.475 353.028 201.529 359.096 197.847Z" fill="#292829"></path><path d="M466.998 225.324C456.721 218.77 448.356 209.593 442.756 198.73C436.608 186.914 433.503 173.737 433.726 160.404C433.506 147.065 436.61 133.882 442.756 122.057C448.367 111.202 456.73 102.029 466.998 95.4637C476.216 89.616 486.801 86.3044 497.692 85.8601C508.583 85.4158 519.399 87.8544 529.059 92.932C537.638 97.6867 543.698 103.059 547.241 108.987H547.548V88.7947H581.25V232.014H547.548V211.801H547.241C543.705 217.756 537.645 223.108 529.059 227.856C519.403 232.948 508.585 235.394 497.691 234.95C486.797 234.505 476.211 231.186 466.998 225.324ZM527.728 197.845C533.841 194.08 538.845 188.744 542.224 182.387C545.721 175.589 547.547 168.047 547.547 160.394C547.547 152.74 545.721 145.199 542.224 138.401C538.839 132.054 533.836 126.726 527.728 122.963C521.671 119.261 514.719 117.303 507.631 117.303C500.543 117.303 493.591 119.261 487.535 122.963C481.408 126.748 476.364 132.068 472.895 138.401C469.307 145.17 467.43 152.723 467.43 160.394C467.43 168.065 469.307 175.618 472.895 182.387C476.358 188.73 481.403 194.057 487.535 197.845C493.596 201.534 500.546 203.485 507.631 203.485C514.717 203.485 521.667 201.534 527.728 197.845Z" fill="#292829"></path><path d="M639.483 225.037C628.13 218.565 618.704 209.161 612.181 197.798C605.658 186.434 602.275 173.525 602.382 160.405C602.268 147.285 605.649 134.372 612.172 123.008C618.696 111.643 628.126 102.24 639.483 95.7735C651.038 89.1201 664.148 85.6815 677.464 85.8112C690.023 85.5638 702.438 88.5316 713.541 94.4356C723.038 99.3774 731.406 106.254 738.112 114.628L715.057 134.841C704.205 123.149 691.92 117.304 678.201 117.304C672.623 117.157 667.075 118.18 661.911 120.306C656.746 122.432 652.079 125.615 648.205 129.654C644.245 133.725 641.143 138.558 639.085 143.864C637.027 149.169 636.055 154.837 636.227 160.529C636.067 166.2 637.045 171.847 639.102 177.13C641.16 182.414 644.256 187.226 648.205 191.28C652.076 195.323 656.743 198.509 661.908 200.635C667.073 202.762 672.622 203.782 678.201 203.63C685.711 203.72 693.125 201.938 699.782 198.443C706.143 195.083 711.851 190.6 716.633 185.208L739.688 205.791C732.5 214.239 723.771 221.225 713.971 226.375C702.436 232.334 689.618 235.343 676.65 235.135C663.682 234.927 650.966 231.508 639.626 225.181" fill="#292829"></path><path d="M793.553 225.037C782.2 218.565 772.774 209.161 766.251 197.798C759.728 186.434 756.345 173.525 756.452 160.405C756.339 147.285 759.719 134.372 766.243 123.008C772.767 111.643 782.196 102.24 793.553 95.7735C805.109 89.1201 818.218 85.6815 831.534 85.8112C844.093 85.5638 856.508 88.5316 867.612 94.4356C877.108 99.3774 885.476 106.254 892.182 114.628L869.127 134.841C858.275 123.149 845.99 117.304 832.272 117.304C826.693 117.155 821.144 118.176 815.979 120.302C810.815 122.429 806.148 125.613 802.275 129.654C798.315 133.725 795.213 138.558 793.155 143.864C791.097 149.169 790.125 154.837 790.297 160.529C790.137 166.2 791.115 171.847 793.173 177.13C795.231 182.414 798.327 187.226 802.275 191.28C806.145 195.324 810.812 198.51 815.977 200.637C821.142 202.764 826.692 203.783 832.272 203.63C839.779 203.669 847.18 201.837 853.812 198.299C860.173 194.939 865.881 190.456 870.663 185.064L893.718 205.647C886.53 214.095 877.8 221.081 868.001 226.231C856.466 232.19 843.647 235.199 830.679 234.991C817.712 234.783 804.995 231.364 793.655 225.037" fill="#292829"></path><path d="M947.611 225.04C936.259 218.569 926.833 209.165 920.31 197.801C913.787 186.438 910.403 173.528 910.51 160.409C910.403 147.289 913.787 134.38 920.31 123.016C926.833 111.653 936.259 102.248 947.611 95.7769C959.218 89.2508 972.294 85.8242 985.593 85.8242C998.891 85.8242 1011.97 89.2508 1023.57 95.7769C1034.92 102.248 1044.34 111.654 1050.86 123.019C1057.37 134.383 1060.74 147.293 1060.61 160.409C1060.73 173.53 1057.35 186.444 1050.83 197.809C1044.3 209.175 1034.87 218.577 1023.51 225.04C1011.91 231.566 998.83 234.993 985.531 234.993C972.233 234.993 959.156 231.566 947.55 225.04M1006.52 197.85C1012.78 194.132 1017.93 188.794 1021.44 182.392C1025.03 175.622 1026.91 168.069 1026.91 160.398C1026.91 152.728 1025.03 145.175 1021.44 138.405C1017.88 131.969 1012.68 126.607 1006.36 122.874C1000.05 119.141 992.857 117.173 985.531 117.173C978.206 117.173 971.014 119.141 964.699 122.874C958.385 126.607 953.178 131.969 949.618 138.405C946.029 145.175 944.152 152.728 944.152 160.398C944.152 168.069 946.029 175.622 949.618 182.392C952.326 187.182 955.951 191.385 960.284 194.759C964.616 198.132 969.571 200.609 974.862 202.047C980.153 203.484 985.675 203.853 991.108 203.133C996.542 202.412 1001.78 200.617 1006.52 197.85Z" fill="#292829"></path><path d="M1083.32 232.015V88.7754H1116.72V107.197H1117.31C1121.75 101.037 1127.51 95.9635 1134.16 92.3569C1141.71 87.9786 1150.29 85.718 1159 85.8114H1166.08V121.441C1162.12 120.45 1158.07 119.857 1153.98 119.671C1149 119.586 1144.06 120.576 1139.5 122.575C1134.93 124.574 1130.84 127.536 1127.51 131.259C1120.33 138.985 1116.73 148.989 1116.72 161.27V231.994L1083.32 232.015Z" fill="#292829"></path><path d="M1213.36 225.326C1203.08 218.765 1194.72 209.591 1189.11 198.732C1182.98 186.91 1179.89 173.736 1180.1 160.406C1179.89 147.07 1182.99 133.89 1189.11 122.059C1194.73 111.208 1203.09 102.036 1213.36 95.4654C1222.58 89.6178 1233.17 86.3064 1244.06 85.8621C1254.95 85.4178 1265.77 87.8562 1275.44 92.9336C1284.02 97.6884 1290.08 103.061 1293.62 108.989H1293.91V24H1327.61V232.015H1293.91V211.802H1293.62C1290.08 217.758 1284.02 223.109 1275.44 227.857C1265.78 232.949 1254.96 235.395 1244.06 234.951C1233.16 234.507 1222.57 231.187 1213.36 225.326ZM1274.11 197.847C1280.22 194.076 1285.22 188.742 1288.6 182.389C1292.09 175.587 1293.9 168.046 1293.9 160.395C1293.9 152.745 1292.09 145.204 1288.6 138.402C1285.21 132.06 1280.21 126.734 1274.11 122.965C1268.05 119.262 1261.1 117.304 1254.01 117.304C1246.92 117.304 1239.97 119.262 1233.91 122.965C1227.78 126.744 1222.74 132.065 1219.27 138.402C1215.69 145.172 1213.81 152.725 1213.81 160.395C1213.81 168.066 1215.69 175.619 1219.27 182.389C1222.73 188.736 1227.78 194.065 1233.91 197.847C1239.97 201.536 1246.92 203.486 1254.01 203.486C1261.1 203.486 1268.05 201.536 1274.11 197.847Z" fill="#292829"></path><path d="M148.056 24H0V75.9935H137.941C142.514 75.9935 146.899 77.8195 150.132 81.0697C153.365 84.3199 155.182 88.7282 155.182 93.3247V231.995H206.902V82.9919C206.912 80.6978 206.468 78.4246 205.596 76.3044C204.724 74.1843 203.442 72.2594 201.824 70.6418L160.218 29.0429C156.987 25.8119 152.614 23.9987 148.056 24Z" fill="#EF4130"></path><path d="M51.7206 162.445V75.7891H0.000216737V172.531C-0.0112177 174.823 0.429895 177.095 1.29801 179.215C2.16612 181.335 3.44398 183.261 5.05759 184.881L46.6837 226.706C49.9136 229.957 54.2956 231.786 58.8664 231.79H155.1V179.776H68.9607C64.3883 179.776 60.0032 177.95 56.7701 174.7C53.5369 171.45 51.7206 167.041 51.7206 162.445Z" fill="#292829"></path><path d="M1417.86 6.03103C1424.65 9.95036 1430.27 15.639 1434.12 22.4977C1438.03 29.4435 1440.06 37.3016 1439.99 45.2835C1440.05 53.2584 1438.03 61.1089 1434.12 68.0486C1430.27 74.9073 1424.65 80.596 1417.86 84.5153C1410.87 88.4699 1402.98 90.5474 1394.96 90.5474C1386.93 90.5474 1379.05 88.4699 1372.06 84.5153C1365.21 80.6169 1359.55 74.9259 1355.68 68.0486C1351.8 61.099 1349.81 53.2491 1349.9 45.2835C1349.84 37.3085 1351.87 29.458 1355.78 22.5183C1359.66 15.641 1365.32 9.94999 1372.16 6.05162C1379.15 2.09697 1387.04 0.0195312 1395.06 0.0195312C1403.08 0.0195313 1410.97 2.09697 1417.96 6.05162M1412.19 75.7468C1417.41 72.7632 1421.73 68.4182 1424.7 63.1704C1427.75 57.7166 1429.29 51.5397 1429.16 45.2835C1429.26 38.9743 1427.65 32.7562 1424.51 27.2936C1421.51 22.1327 1417.19 17.8699 1412 14.9436C1408.12 12.6719 1403.83 11.192 1399.37 10.5884C1394.92 9.98483 1390.39 10.2694 1386.04 11.4258C1381.7 12.5823 1377.62 14.5879 1374.05 17.3282C1370.48 20.0686 1367.47 23.4898 1365.22 27.3965C1362.13 32.8392 1360.56 39.0187 1360.67 45.2835C1360.6 51.548 1362.19 57.7182 1365.3 63.1498C1369.89 71.0028 1377.37 76.724 1386.13 79.0772C1394.88 81.4305 1404.21 80.2268 1412.08 75.7262M1406.09 50.5116L1415.85 66.052H1404.73L1396.09 53.2492H1388.8V66.052H1379.04V24.0003H1398.45C1400.43 23.9549 1402.39 24.3168 1404.23 25.0637C1406.06 25.8106 1407.73 26.9266 1409.12 28.3434C1410.5 29.6718 1411.59 31.2701 1412.33 33.04C1413.08 34.81 1413.45 36.714 1413.44 38.635C1413.44 41.0981 1412.76 43.514 1411.48 45.6118C1410.2 47.7096 1408.36 49.4063 1406.17 50.5116M1397.28 44.7689C1398.22 44.8226 1399.16 44.6843 1400.04 44.3624C1400.93 44.0404 1401.73 43.5415 1402.42 42.8958C1403.05 42.2465 1403.54 41.4753 1403.86 40.6294C1404.18 39.7834 1404.32 38.8807 1404.28 37.9764C1404.32 37.0755 1404.17 36.1766 1403.85 35.3344C1403.53 34.4923 1403.05 33.7244 1402.42 33.0775C1401.74 32.4292 1400.93 31.9271 1400.04 31.6016C1399.16 31.2762 1398.22 31.134 1397.28 31.1839H1388.03V44.7689H1397.28Z" fill="#292829"></path></svg>
